<?xml version="1.0" encoding="UTF-8" standalone="no"?>
<!--Scalable Vector Graphic-->

<svg
   version="1.1"
   id="svg1"
   sodipodi:docname="logo-1.svg"
   xml:space="preserve"
   inkscape:version="1.4.2 (ebf0e940, 2025-05-08)"
   width="80.99588"
   height="65.793686"
   xmlns:inkscape="http://www.inkscape.org/namespaces/inkscape"
   xmlns:sodipodi="http://sodipodi.sourceforge.net/DTD/sodipodi-0.dtd"
   xmlns="http://www.w3.org/2000/svg"
   xmlns:svg="http://www.w3.org/2000/svg"><defs
     id="defs1" /><sodipodi:namedview
     id="namedview1"
     pagecolor="#505050"
     bordercolor="#eeeeee"
     borderopacity="1"
     inkscape:showpageshadow="0"
     inkscape:pageopacity="0"
     inkscape:pagecheckerboard="0"
     inkscape:deskcolor="#505050"
     inkscape:current-layer="svg1" /><path
     id="path125"
     style="fill:#102641;fill-opacity:1"
     d="M 15.660156 11.248047 C 14.738579 11.218387 14.518039 11.249947 14.373047 11.431641 C 14.243632 11.593767 14.184054 12.910015 14.146484 16.480469 C 14.118534 19.136579 14.13668 21.390061 14.1875 21.488281 C 14.355015 21.811561 13.998278 21.791219 21.902344 21.904297 C 23.258782 21.923707 25.614137 21.954173 27.136719 21.970703 C 28.659307 21.987223 30.474827 22.010037 31.169922 22.023438 C 31.854163 22.036617 32.459955 22.004742 32.53125 21.951172 L 32.533203 21.949219 C 32.632363 21.850059 32.697885 19.753581 32.765625 14.470703 C 32.791485 12.453878 32.755254 11.699252 32.626953 11.572266 C 32.498746 11.445361 31.185077 11.396802 27.591797 11.382812 C 22.411577 11.362653 17.483188 11.306703 15.660156 11.248047 z M 65.337891 11.248047 C 63.514851 11.306697 58.586472 11.362652 53.40625 11.382812 C 49.81297 11.396802 48.499304 11.445363 48.371094 11.572266 C 48.242824 11.699253 48.206522 12.453878 48.232422 14.470703 C 48.300162 19.753581 48.365644 21.850059 48.464844 21.949219 L 48.466797 21.951172 C 48.538097 22.004742 49.143886 22.036607 49.828125 22.023438 C 50.523226 22.010037 52.338748 21.987223 53.861328 21.970703 C 55.383925 21.954173 57.739263 21.923707 59.095703 21.904297 C 66.999763 21.791219 66.643037 21.811556 66.810547 21.488281 C 66.861547 21.390061 66.879462 19.136579 66.851562 16.480469 C 66.813963 12.910015 66.75446 11.593767 66.625 11.431641 C 66.48 11.249946 66.259461 11.218387 65.337891 11.248047 z M 37.189453 29.029297 C 32.538119 28.959677 32.256339 28.997567 31.449219 29.804688 C 30.717635 30.536266 30.674524 30.881046 30.621094 36.367188 C 30.594444 39.102672 30.599483 41.431034 30.632812 41.541016 C 30.681932 41.703237 30.897353 41.747021 31.773438 41.769531 C 32.358244 41.784551 32.888876 41.746277 32.964844 41.685547 L 32.966797 41.683594 L 32.96875 41.681641 C 33.03021 41.593341 33.092554 40.663243 33.105469 39.59375 C 33.171539 34.123584 33.170589 34.118476 33.388672 33.900391 C 33.553598 33.735464 33.854797 33.693926 34.802734 33.703125 C 36.987716 33.724355 38.843838 33.743229 40.412109 33.761719 L 40.412109 33.763672 C 40.439669 33.763342 40.468364 33.762119 40.496094 33.761719 C 40.526294 33.762077 40.555948 33.763272 40.585938 33.763672 L 40.585938 33.761719 C 42.15421 33.743219 44.010324 33.724345 46.195312 33.703125 C 47.143242 33.693925 47.444446 33.735465 47.609375 33.900391 C 47.827477 34.118476 47.826478 34.123585 47.892578 39.59375 C 47.905498 40.663243 47.967799 41.59334 48.029297 41.681641 L 48.03125 41.683594 L 48.033203 41.685547 C 48.109173 41.746277 48.639809 41.784551 49.224609 41.769531 C 50.100699 41.747021 50.316134 41.703242 50.365234 41.541016 C 50.398534 41.431034 50.403653 39.102672 50.376953 36.367188 C 50.323523 30.881045 50.280413 30.536266 49.548828 29.804688 C 48.741708 28.997567 48.459924 28.959677 43.808594 29.029297 C 42.847047 29.043687 41.67694 29.058126 40.496094 29.072266 C 39.317713 29.058146 38.149027 29.043667 37.189453 29.029297 z M 40.390625 31.023438 C 41.65309 31.045665 42.765631 31.104334 42.863281 31.152344 C 42.960911 31.200378 43.067312 31.372894 43.101562 31.537109 C 43.135773 31.701359 43.106879 31.894754 43.037109 31.964844 L 43.035156 31.964844 C 42.934836 32.033276 41.843266 32.085984 40.582031 32.080078 C 38.888777 32.072199 38.205467 32.021333 38.080078 31.894531 C 37.852415 31.663897 37.825409 31.497844 37.972656 31.216797 C 38.081195 31.009623 38.342494 30.987368 40.390625 31.023438 z M 31.726562 48.039062 C 31.204241 48.041362 30.677996 48.095423 30.576172 48.197266 C 30.493252 48.280186 30.419948 50.564015 30.392578 53.904297 C 30.341878 60.088226 30.359909 60.244676 31.185547 61.070312 C 31.542908 61.427673 31.764909 61.562942 32.216797 61.697266 C 32.614705 61.815558 34.814343 61.886021 39.328125 61.925781 C 39.704636 61.929081 40.065355 61.930794 40.412109 61.933594 L 40.412109 61.935547 C 40.441229 61.935284 40.47067 61.935797 40.5 61.935547 C 40.5286 61.935786 40.557537 61.935297 40.585938 61.935547 L 40.585938 61.933594 C 40.932698 61.930794 41.29341 61.929081 41.669922 61.925781 C 46.183702 61.886021 48.38334 61.815557 48.78125 61.697266 C 49.23313 61.562942 49.455128 61.427673 49.8125 61.070312 C 50.638159 60.244675 50.656169 60.088226 50.605469 53.904297 C 50.578099 50.564015 50.504775 48.280187 50.421875 48.197266 C 50.320056 48.095424 49.793804 48.041362 49.271484 48.039062 C 48.749164 48.036763 48.230778 48.086452 48.142578 48.1875 C 48.053968 48.288859 48.014463 49.405612 48.039062 51.115234 C 48.083633 54.211324 48.055422 55.024663 47.898438 55.181641 L 47.896484 55.183594 L 47.894531 55.183594 C 47.812311 55.241474 47.348439 55.309231 46.84375 55.332031 C 45.98643 55.370771 43.295138 55.404208 40.501953 55.423828 C 37.707044 55.404218 35.012106 55.370801 34.154297 55.332031 C 33.649604 55.309231 33.185731 55.241472 33.103516 55.183594 L 33.101562 55.181641 L 33.099609 55.181641 C 32.942814 55.024663 32.914414 54.211324 32.958984 51.115234 C 32.983594 49.405612 32.944095 48.28886 32.855469 48.1875 C 32.767279 48.086452 32.248883 48.03681 31.726562 48.039062 z " /><path
     style="fill:#1bb1e7;fill-opacity:1"
     d="m 26.495942,42.871093 c -0.0092,0.862345 -0.26693,1.666975 -0.705078,2.347657 0.192905,0.01072 0.416726,0.02994 0.654297,0.05664 4.26705,0.479568 9.264224,0.746244 13.964844,0.777344 v 0.002 c 0.01687,-9e-5 0.0339,9.7e-5 0.05078,0 0.04112,2.58e-4 0.08197,-2.21e-4 0.123047,0 v -0.002 c 4.700628,-0.0311 9.69777,-0.297776 13.964849,-0.777344 0.23889,-0.02685 0.46594,-0.04637 0.66015,-0.05664 -0.43837,-0.680802 -0.6978,-1.485072 -0.70703,-2.347657 l -0.41211,0.03906 c -0.587371,0.05703 -1.504149,0.143376 -2.037109,0.191406 -0.53296,0.04803 -1.560423,0.14136 -2.283203,0.207031 -2.15199,0.195524 -5.759265,0.307423 -9.320313,0.322266 -3.528872,-0.01648 -7.08859,-0.128548 -9.220703,-0.322266 -0.722779,-0.06567 -1.750246,-0.158998 -2.283202,-0.207028 -0.532957,-0.04803 -1.449738,-0.134376 -2.037109,-0.191406 z"
     id="path150" /><path
     style="fill:#b4bac6;fill-opacity:1;stroke:#102641;stroke-opacity:1"
     d="m 58.954931,40.36914 c -1.36659,0 -2.45313,1.086543 -2.45313,2.453125 0,1.366583 1.08654,2.453125 2.45313,2.453125 1.36658,0 2.45312,-1.086542 2.45312,-2.453125 0,-1.366582 -1.08654,-2.453125 -2.45312,-2.453125 z"
     id="path149" /><path
     style="fill:#b4bac6;fill-opacity:1;stroke:#102641;stroke-opacity:1"
     d="m 22.042817,40.36914 c -1.366582,0 -2.453125,1.086543 -2.453125,2.453125 0,1.366583 1.086543,2.453125 2.453125,2.453125 1.366583,0 2.453125,-1.086542 2.453125,-2.453125 0,-1.366582 -1.086542,-2.453125 -2.453125,-2.453125 z"
     id="path148" /><path
     style="fill:#1bb1e7;fill-opacity:1"
     d="m 11.708833,39.34375 c -0.148102,0.825999 -0.527485,1.576612 -1.066406,2.179687 0.226141,0.04948 0.533045,0.160421 1.019531,0.333984 1.284493,0.458263 2.118384,0.695205 5.234375,1.488282 l 0.751953,0.191406 c -0.03797,-0.232625 -0.05859,-0.471991 -0.05859,-0.714844 0,-0.55213 0.102872,-1.081105 0.289063,-1.570312 C 15.840694,40.740492 12.631722,39.7392 11.708837,39.34375 Z"
     id="path147" /><path
     style="fill:#1bb1e7;fill-opacity:1"
     d="m 69.288911,39.341796 c -0.92115,0.395218 -4.13091,1.396437 -6.16992,1.908204 0.18673,0.489826 0.28906,1.019296 0.28906,1.572265 0,0.242673 -0.0207,0.480429 -0.0586,0.712891 l 0.75,-0.189453 c 3.116,-0.793077 3.94988,-1.030019 5.23437,-1.488282 0.48715,-0.173798 0.7933,-0.286564 1.01953,-0.335937 -0.53916,-0.60368 -0.91682,-1.35287 -1.06445,-2.179688 z"
     id="path146" /><path
     style="fill:#ffffff;fill-opacity:1;stroke:#102641;stroke-opacity:1"
     d="m 73.673681,36.111328 c -1.36659,-10e-7 -2.45313,1.084589 -2.45313,2.451172 0,1.366582 1.08654,2.453126 2.45313,2.453124 1.36658,10e-7 2.45312,-1.086542 2.45312,-2.453124 0,-1.366583 -1.08654,-2.451173 -2.45312,-2.451172 z"
     id="path145" /><path
     style="fill:#ffffff;fill-opacity:1;stroke:none;stroke-width:0.528693;stroke-opacity:1"
     d="m 40.499033,57.331495 c -0.722506,-10e-7 -1.296953,0.573415 -1.296953,1.295918 0,0.722503 0.574447,1.296951 1.296953,1.29695 0.722501,0 1.296948,-0.574447 1.296948,-1.29695 0,-0.722503 -0.574447,-1.295919 -1.296948,-1.295918 z"
     id="path145-8" /><path
     style="fill:#ffffff;fill-opacity:1;stroke:#102641;stroke-opacity:1"
     d="m 7.324067,36.111328 c -1.366582,-10e-7 -2.453125,1.084586 -2.453125,2.451172 0,1.366582 1.086543,2.453126 2.453125,2.453124 1.366583,3e-6 2.453125,-1.086544 2.453125,-2.453124 0,-1.366583 -1.086542,-2.451173 -2.453125,-2.451172 z"
     id="path144" /><path
     style="fill:#1bb1e7;fill-opacity:1"
     d="m 11.507661,22.265624 c -0.409737,0.001 -0.886912,0.211919 -2.333984,0.861329 -2.239232,1.004908 -3.893464,2.001516 -5.730469,3.455078 -1.128691,0.893098 -1.847146,1.641373 -2.509766,2.617187 -1.182798,1.741858 -1.245993,3.972711 -0.164062,5.746094 0.403978,0.662172 1.402294,1.763189 2.248047,2.486328 0.198988,-0.750979 0.591347,-1.426717 1.11914,-1.96875 C 3.978242,35.305247 3.788156,35.105065 3.554536,34.857421 2.745023,33.999325 2.684705,33.909224 2.466645,33.236328 2.023814,31.86986 2.164603,30.895903 2.993989,29.585937 c 0.4522,-0.714217 0.634255,-0.911845 1.730469,-1.878906 1.391336,-1.227409 2.284114,-1.838898 4.060547,-2.777344 1.33661,-0.706099 3.786603,-1.821446 4.361328,-1.986328 0.449245,-0.128857 0.450041,-0.227398 0.0039,-0.318359 -0.194021,-0.03955 -0.662984,-0.152804 -1.041016,-0.251954 -0.243518,-0.06386 -0.415318,-0.1079 -0.601562,-0.107422 z"
     id="path143" /><path
     style="fill:#1bb1e7;fill-opacity:1"
     d="m 69.488131,22.263671 c -0.18625,-4.78e-4 -0.35804,0.04356 -0.60156,0.107422 -0.37803,0.09915 -0.847,0.212403 -1.04102,0.251953 -0.44603,0.09096 -0.44542,0.189503 0.004,0.31836 0.57473,0.164882 3.02473,1.280229 4.36132,1.986328 1.77645,0.938446 2.66921,1.549935 4.06055,2.777344 1.09621,0.967061 1.27827,1.164689 1.73047,1.878906 0.82938,1.309966 0.97017,2.283926 0.52734,3.65039 -0.21806,0.672897 -0.27838,0.762998 -1.08789,1.621094 -0.23383,0.247872 -0.42362,0.447758 -0.58203,0.605469 0.52847,0.541979 0.92169,1.217461 1.1211,1.96875 0.84548,-0.723153 1.84231,-1.822534 2.24609,-2.484375 1.08193,-1.773383 1.01873,-4.004236 -0.16406,-5.746094 -0.66262,-0.975814 -1.38108,-1.724089 -2.50977,-2.617187 -1.83701,-1.453562 -3.49124,-2.45017 -5.73047,-3.455078 -1.44707,-0.64941 -1.92425,-0.860329 -2.33398,-0.861329 z"
     id="path119" /><path
     id="path118"
     style="fill:#102741;fill-opacity:1"
     d="m 40.497895,0 -0.841796,3.386718 -0.142579,0.316406 -0.921875,0.05664 c -0.506728,0.03128 -1.505066,0.129757 -2.220703,0.216797 -3.353823,0.407921 -5.433116,1.052258 -6.353515,1.972656 -0.357545,0.357549 -0.400388,0.455696 -0.400391,0.902344 -3.8e-5,0.398969 0.05918,0.559179 0.289063,0.789062 0.812702,0.812705 3.195479,1.618142 5.822265,1.96875 1.534624,0.204828 3.124679,0.311796 4.683594,0.332032 v 0.002 c 0.02885,-2.56e-4 0.05902,3.16e-4 0.08789,0 0.02887,3.16e-4 0.05709,-2.56e-4 0.08594,0 v -0.002 C 42.144706,9.921165 43.734754,9.8142 45.269382,9.609373 47.896162,9.258765 50.278947,8.453328 51.091647,7.640623 51.321507,7.41074 51.38075,7.25053 51.38071,6.851561 51.38071,6.404913 51.33787,6.306766 50.980319,5.949217 50.059919,5.028819 47.980624,4.384482 44.626804,3.976561 43.911164,3.889521 42.912821,3.791044 42.406101,3.759764 L 41.484225,3.703124 41.341647,3.386718 Z m -0.08594,11.52539 c -4.304431,-0.0049 -5.037517,0.02908 -5.185547,0.212891 -0.129264,0.160509 -0.192071,1.307831 -0.238281,4.324219 -0.114492,7.474983 -0.108409,7.730647 0.203125,8.414062 0.344086,0.754746 1.175558,1.545544 1.93164,1.835938 0.819835,0.31487 2.095981,0.528112 3.289063,0.552734 v 0.002 c 0.02161,-2.37e-4 0.04451,-1.1e-4 0.06641,0 0.014,7.1e-5 0.02693,2.09e-4 0.04102,0 0.0224,-1.06e-4 0.04431,-2.42e-4 0.06641,0 v -0.002 c 1.193083,-0.02462 2.469218,-0.237862 3.289063,-0.552734 0.756078,-0.290394 1.58755,-1.081192 1.93164,-1.835938 0.31153,-0.683415 0.317615,-0.939078 0.203125,-8.414062 -0.04621,-3.016388 -0.109021,-4.16371 -0.238281,-4.324219 -0.148062,-0.183841 -0.878783,-0.217803 -5.185547,-0.212891 -0.07237,8.2e-5 -0.0994,-1.05e-4 -0.173828,0 z" /><path
     style="fill:#ffffff;stroke:none;stroke-width:0.0746253;stroke-linejoin:round"
     d="m 38.702954,32.009729 c -0.453259,-0.03731 -0.616169,-0.09718 -0.71773,-0.263755 -0.0887,-0.145487 -0.09556,-0.283312 -0.02277,-0.457521 0.09661,-0.231231 0.04811,-0.225977 2.055354,-0.222651 1.961698,0.0032 2.780837,0.04586 2.896675,0.150697 0.156967,0.142053 0.233955,0.611084 0.119149,0.72589 -0.09829,0.09829 -3.341886,0.148727 -4.330676,0.06734 z"
     id="path1" /></svg>
